PathFileType	4	(X/Y/Z)	 s05c0303.trc
DataRate	CameraRate	NumFrames	NumMarkers	Units	OrigDataRate	OrigDataStartFrame	OrigNumFrames
200	200	4	48	mm	200	1251	2000
Frame#	Time	racr			lacr			c7			jug			rlel			rdr			llel			ldr			s2			lic			ric			lasi			rasi			rpsi			lpsi			rgt			lgt			rth1			rth2			rth3			rth4			rlfc			rsh1			rsh2			rsh3			rsh4			rlmal			rcal			rtoe			rmt5			rmt1			lth1			lth2			lth4			lth3			llfc			lmfc			lsh1			lsh2			lsh3			lsh4			llmal			lcal			ltoe			lmt5			SBIKE			LBIKE			RBIKE			
		X1	Y1	Z1	X2	Y2	Z2	X3	Y3	Z3	X4	Y4	Z4	X5	Y5	Z5	X6	Y6	Z6	X7	Y7	Z7	X8	Y8	Z8	X9	Y9	Z9	X10	Y10	Z10	X11	Y11	Z11	X12	Y12	Z12	X13	Y13	Z13	X14	Y14	Z14	X15	Y15	Z15	X16	Y16	Z16	X17	Y17	Z17	X18	Y18	Z18	X19	Y19	Z19	X20	Y20	Z20	X21	Y21	Z21	X22	Y22	Z22	X23	Y23	Z23	X24	Y24	Z24	X25	Y25	Z25	X26	Y26	Z26	X27	Y27	Z27	X28	Y28	Z28	X29	Y29	Z29	X30	Y30	Z30	X31	Y31	Z31	X32	Y32	Z32	X33	Y33	Z33	X34	Y34	Z34	X35	Y35	Z35	X36	Y36	Z36	X37	Y37	Z37	X38	Y38	Z38	X39	Y39	Z39	X40	Y40	Z40	X41	Y41	Z41	X42	Y42	Z42	X43	Y43	Z43	X44	Y44	Z44	X45	Y45	Z45	X46	Y46	Z46	X47	Y47	Z47	X48	Y48	Z48	
1251	6.2550	801.409509	1263.675475	-171.780185	756.677300	1256.454674	-462.522908	777.593890	1342.739934	-323.748608	710.237838	1190.833687	-303.688573	626.037627	1117.225821	18.682355	698.217347	913.866726	-62.254576	499.429311	1096.678799	-544.734302	677.863126	939.425109	-463.151198	197.827617	1258.942484	-181.017100	301.532653	1259.467014	-356.185937	376.848523	1223.919801	-84.245211	342.492989	1193.354901	-333.659227	388.426450	1157.006240	-122.183366	254.652758	1290.580179	-146.089424	235.449014	1308.311123	-229.349701	299.407033	1102.609885	-57.601802	214.563919	1184.310305	-377.226159	350.874197	998.696538	-61.500253	401.476766	925.636787	-66.509529	406.200173	837.323066	-70.598491	432.189105	937.172872	-82.700542	439.468005	692.839572	-96.961272	340.487663	644.731030	-68.454172	285.201419	576.552630	-80.402107	205.994499	542.395387	-83.048273	303.907196	556.062053	-108.161574	99.349748	457.639947	-91.017083	42.379772	506.292836	-134.721320	130.044607	223.687056	-159.931955	73.760143	302.748729	-85.826721	NaN	NaN	NaN	289.218713	1065.835193	-426.081745	360.722776	1021.628094	-443.360566	390.370890	1043.442511	-434.017423	400.171392	942.129044	-460.846343	484.154825	814.663476	-453.898847	505.590636	797.734353	-345.268451	406.036694	708.202275	-461.135582	388.929347	623.402392	-449.507437	329.474767	558.685631	-437.119731	422.062979	610.260111	-434.131876	281.720297	453.383117	-423.068884	216.659501	428.115533	-376.223627	490.894523	330.219616	-397.834560	376.749513	331.037751	-456.395288	-167.355491	901.494608	-269.012632	-43.353963	85.144683	-473.984729	-51.364259	80.317342	-76.442137	
1252	6.2600	801.246624	1264.359909	-170.105055	758.484475	1254.048158	-461.425135	778.004820	1341.972391	-323.065860	711.090731	1189.687857	-301.904990	624.764166	1117.040068	18.175473	697.895429	913.720430	-62.235948	500.542160	1096.515875	-547.024226	677.809065	939.419001	-463.600511	198.992222	1257.718380	-182.786859	302.052249	1256.296374	-358.188861	375.439542	1223.916446	-85.352064	342.866547	1190.453978	-334.550810	387.168951	1156.651838	-122.372662	253.613965	1289.819897	-148.648790	234.803032	1306.456368	-232.530060	298.447052	1102.543620	-57.739414	214.371375	1180.887655	-378.536805	351.294872	999.127561	-60.173032	403.637561	927.128847	-65.038183	410.093990	838.863453	-68.798495	434.074519	939.321680	-81.002898	445.347954	695.399841	-95.749352	345.460921	649.560018	-67.409171	288.348076	583.103892	-80.228816	208.859060	550.212341	-82.580270	307.223719	561.531952	-107.063894	101.063949	467.802371	-91.046485	44.672078	517.071400	-134.736586	129.553792	233.661356	-159.842514	73.951286	313.324441	-85.753876	NaN	NaN	NaN	288.068143	1060.845605	-426.028989	358.881107	1015.257025	-442.563730	388.816420	1036.645346	-433.460512	397.018274	934.891204	-459.046973	479.167080	806.852215	-451.076706	499.484528	789.715121	-342.538586	401.840102	699.909508	-459.601551	385.889874	614.722736	-448.580967	327.393715	549.010181	-437.007075	419.144300	601.998562	-433.264200	281.159861	442.094992	-423.816890	216.114499	416.492335	-377.210407	490.638494	319.024237	-397.205219	376.867871	319.884832	-456.476051	-167.430569	901.420395	-269.165550	-43.349787	85.142005	-474.020064	-51.372134	80.298506	-76.435012	
1253	6.2650	800.992414	1264.935459	-168.305177	760.409034	1251.616039	-460.131970	778.455410	1341.214030	-322.195130	711.945489	1188.603019	-300.074358	623.204818	1116.732990	17.656036	697.572045	913.637179	-62.288779	501.929220	1096.494430	-549.364557	677.775681	939.347533	-464.082214	197.941857	1256.568489	-185.109925	302.735505	1253.071677	-360.420586	373.908979	1224.039517	-86.580127	343.440325	1187.543904	-335.795453	385.816979	1156.249845	-122.726486	252.673339	1288.387669	-151.264339	234.044695	1304.398085	-235.116414	296.857200	1102.364489	-58.408380	214.707855	1177.271166	-379.786349	351.867779	999.577425	-58.772270	405.601089	928.407494	-63.677399	414.214813	840.591652	-67.137625	436.154222	941.613067	-78.655711	451.323416	698.400320	-94.255799	350.562748	654.757203	-66.261495	292.131234	589.318481	-79.383234	211.989162	558.163715	-82.139244	310.787724	567.191049	-105.776732	103.205075	477.939160	-91.058014	47.318326	527.797534	-134.726657	129.856300	243.837825	-159.825696	74.809623	323.854539	-85.686162	NaN	NaN	NaN	287.065792	1055.748584	-426.148282	357.089314	1008.754130	-441.847744	387.359856	1029.706529	-432.814062	393.910107	927.495110	-457.086056	474.252366	799.167856	-448.125049	493.080627	781.691446	-339.433124	397.453042	692.308677	-457.966118	382.706277	606.529171	-447.530566	325.033943	539.855201	-436.848524	416.037240	594.125027	-432.287226	280.209060	431.040986	-424.245801	215.013500	405.942411	-378.794286	490.007586	307.927835	-397.017595	376.315705	308.857162	-456.573221	-167.479120	901.310253	-269.371385	-43.359170	85.111981	-474.040070	-51.385058	80.282932	-76.498697	
1254	6.2700	800.984119	1265.965649	-165.107610	762.381216	1248.977053	-457.598050	778.890346	1340.432589	-321.196811	712.893494	1187.403561	-298.149869	621.446191	1116.327021	17.227331	697.283776	913.611686	-62.376103	503.610251	1096.683383	-551.774808	677.792359	939.241293	-464.618239	197.070822	1255.260101	-187.825114	303.546260	1249.844371	-362.742300	372.148031	1224.043786	-88.095306	344.062449	1184.440423	-337.003651	384.322128	1155.927019	-123.310811	251.561117	1287.138721	-154.026934	233.430662	1302.375621	-238.015328	299.022892	1103.202271	-55.514467	215.073044	1173.731258	-381.642660	352.644437	1000.157699	-57.349874	407.756918	930.298830	-62.312380	418.518727	842.648236	-65.523825	438.322154	944.137833	-76.635813	457.337917	701.777080	-92.578014	355.643423	660.348178	-64.843536	296.128493	595.618295	-78.546013	215.577519	566.232188	-81.626195	314.655303	573.166168	-104.442600	105.919832	488.202219	-91.088934	50.487298	538.566709	-134.823483	130.908594	254.078418	-159.821880	76.434622	334.398158	-85.678542	NaN	NaN	NaN	286.192356	1050.579049	-426.370050	355.433079	1002.076612	-441.023614	386.014434	1022.573760	-432.189971	390.827481	919.940249	-454.919265	469.265233	791.695847	-445.016913	486.137539	773.749591	-336.113820	392.959453	684.536595	-455.363216	379.313792	598.574365	-446.338434	322.357091	531.133032	-436.494714	412.796859	586.258818	-431.138472	278.695442	420.309307	-424.374789	213.651585	394.665386	-378.894778	488.680381	296.548157	-396.896970	375.143531	297.840816	-456.599068	-167.421276	901.222087	-269.481375	-43.361192	85.074246	-474.055065	-51.367156	80.282085	-76.521909	
